<svg width="12" height="13" viewBox="0 0 12 13" fill="none" xmlns="http://www.w3.org/2000/svg">
<path d="M6.40716 6.87567L1.09466 12.1882C0.994976 12.2879 0.859776 12.3439 0.718801 12.3439C0.577827 12.3439 0.442626 12.2879 0.342942 12.1882C0.243258 12.0885 0.187256 11.9533 0.187256 11.8123C0.187256 11.6713 0.243258 11.5361 0.342942 11.4364L5.28025 6.49981L0.342942 1.56317C0.243258 1.46348 0.187256 1.32828 0.187256 1.18731C0.187256 1.04633 0.243258 0.911132 0.342942 0.811448C0.442626 0.711764 0.577827 0.655762 0.718801 0.655762C0.859776 0.655762 0.994976 0.711764 1.09466 0.811448L6.40716 6.12395C6.45655 6.17329 6.49574 6.23188 6.52247 6.29637C6.54921 6.36086 6.56297 6.42999 6.56297 6.49981C6.56297 6.56962 6.54921 6.63875 6.52247 6.70324C6.49574 6.76774 6.45655 6.82633 6.40716 6.87567ZM11.7197 6.12395L6.40716 0.811448C6.30748 0.711764 6.17228 0.655762 6.0313 0.655762C5.89033 0.655762 5.75513 0.711764 5.65544 0.811448C5.55576 0.911132 5.49976 1.04633 5.49976 1.18731C5.49976 1.32828 5.55576 1.46348 5.65544 1.56317L10.5927 6.49981L5.65544 11.4364C5.55576 11.5361 5.49976 11.6713 5.49976 11.8123C5.49976 11.9533 5.55576 12.0885 5.65544 12.1882C5.75513 12.2879 5.89033 12.3439 6.0313 12.3439C6.17228 12.3439 6.30748 12.2879 6.40716 12.1882L11.7197 6.87567C11.7691 6.82633 11.8082 6.76774 11.835 6.70324C11.8617 6.63875 11.8755 6.56962 11.8755 6.49981C11.8755 6.42999 11.8617 6.36086 11.835 6.29637C11.8082 6.23188 11.7691 6.17329 11.7197 6.12395Z" fill="#F2F9F9"/>
</svg>
