<svg width="71" height="44" viewBox="0 0 71 44" fill="none" xmlns="http://www.w3.org/2000/svg">
<path d="M16.5766 30.846C15.6463 30.846 14.8952 30.0949 14.8952 29.1647C14.8952 28.2345 15.6463 27.4834 16.5766 27.4834H46.2572C46.3785 27.4834 46.4999 27.4949 46.6154 27.5238C47.6786 27.6856 48.6723 27.986 49.5621 28.4656C50.5444 28.9971 51.3821 29.7309 52.0293 30.7132C54.2537 34.0816 53.9244 37.2074 52.3528 39.5185C51.3301 41.0266 49.7701 42.1474 48.0483 42.7368C46.315 43.3319 44.3968 43.3897 42.6634 42.7541C40.0403 41.795 37.914 39.351 37.602 34.9252C37.5385 34.0007 38.2376 33.2034 39.1621 33.1398C40.0865 33.0763 40.8838 33.7754 40.9474 34.6998C41.1496 37.5541 42.3399 39.0679 43.8016 39.5994C44.7896 39.9577 45.9221 39.9114 46.9679 39.5532C48.031 39.1892 48.9786 38.519 49.5795 37.635C50.4404 36.3696 50.5675 34.5843 49.227 32.5563C48.8977 32.0594 48.4701 31.6838 47.9674 31.4123C47.4417 31.1292 46.8292 30.9443 46.159 30.8403H16.5766V30.846ZM8.90362 15.7255C7.97339 15.7255 7.22227 14.9744 7.22227 14.0441C7.22227 13.1139 7.97339 12.3628 8.90362 12.3628H38.4918C39.1678 12.2588 39.7803 12.0739 40.3061 11.7908C40.8087 11.5192 41.2363 11.1437 41.5656 10.6468C42.9061 8.61877 42.7732 6.83343 41.9181 5.56808C41.3172 4.68408 40.3696 4.01385 39.3065 3.64985C38.2607 3.29162 37.1225 3.2454 36.1403 3.60363C34.6842 4.13518 33.4882 5.64897 33.286 8.50322C33.2225 9.42767 32.4251 10.1268 31.5007 10.0632C30.5762 9.99967 29.8771 9.20233 29.9407 8.27788C30.2527 3.85207 32.3789 1.40805 35.002 0.448936C36.7354 -0.180846 38.6536 -0.123068 40.387 0.46627C42.1087 1.05561 43.6688 2.18228 44.6914 3.68451C46.263 5.99564 46.5923 9.12144 44.3679 12.4899C43.7208 13.4721 42.883 14.2059 41.9007 14.7375C41.011 15.217 40.0172 15.5175 38.9541 15.6793C38.8385 15.7024 38.7172 15.7197 38.5958 15.7197H8.90362V15.7255ZM1.68135 23.2887C0.751116 23.2887 0 22.5318 0 21.6073C0 20.6771 0.751116 19.926 1.68135 19.926H63.5444C64.2205 19.822 64.8329 19.6371 65.3529 19.354C65.8556 19.0824 66.2831 18.7068 66.6125 18.21C67.9529 16.1819 67.82 14.3966 66.9649 13.1312C66.364 12.2472 65.4165 11.577 64.3533 11.213C63.3076 10.8548 62.1693 10.8086 61.1871 11.1668C59.7311 11.6983 58.5351 13.2121 58.3329 16.0664C58.2693 16.9908 57.472 17.6899 56.5475 17.6264C55.6231 17.5628 54.9239 16.7655 54.9875 15.841C55.2995 11.4152 57.4257 8.97122 60.0489 8.0121C61.7822 7.38232 63.7005 7.4401 65.4338 8.02943C67.1556 8.61877 68.7156 9.74545 69.7383 11.2477C71.3098 13.5588 71.6392 16.6846 69.4147 20.0531C68.7676 21.0353 67.9298 21.7691 66.9476 22.3006C66.0578 22.7802 65.064 23.0807 64.0009 23.2424C63.8853 23.2655 63.764 23.2829 63.6427 23.2829H1.68135V23.2887Z" fill="#63A1AD"/>
</svg>
